<svg viewBox="0 0 200 200" width="100%" height="100%" xmlns="http://www.w3.org/2000/svg">
  <ellipse cx="100" cy="183" rx="66" ry="7" fill="currentColor" opacity=".12"/>
  <path d="M62 49h76v20c18 9 23 23 23 44v47c0 15-11 21-25 21H64c-14 0-25-6-25-21v-47c0-21 5-35 23-44z" fill="currentColor" opacity=".2"/>
  <path d="M62 49h76v20c18 9 23 23 23 44v47c0 15-11 21-25 21H64c-14 0-25-6-25-21v-47c0-21 5-35 23-44z" stroke="currentColor" stroke-width="6" fill="none"/>
  <rect x="56" y="38" width="88" height="15" rx="6" fill="currentColor"/>
  <path d="M79 44h42" stroke="var(--background,#0B1C2C)" stroke-width="4" stroke-linecap="round"/>
  <g fill="var(--accent,#FFD166)"><rect x="61" y="149" width="50" height="9" rx="4"/><rect x="86" y="136" width="50" height="9" rx="4"/><rect x="62" y="123" width="50" height="9" rx="4"/></g>
</svg>
